<?xml version="1.0" encoding="utf-8"?>
<!-- Generator: Adobe Illustrator 22.1.0, SVG Export Plug-In . SVG Version: 6.00 Build 0)  -->
<svg version="1.1" id="Слой_1" xmlns="http://www.w3.org/2000/svg" xmlns:xlink="http://www.w3.org/1999/xlink" x="0px" y="0px"
	 viewBox="0 0 25 25" style="enable-background:new 0 0 25 25;" xml:space="preserve">
<style type="text/css">
	.st0{fill:#FFFFFF;}
</style>
<g>
	<path class="st0" d="M5.8,16.4H0.6c0-0.5,0.1-0.9,0.4-1.4s0.8-1,1.6-1.6c0.8-0.6,1.3-1.1,1.6-1.5c0.3-0.4,0.4-0.8,0.4-1.3
		c0-0.4-0.1-0.8-0.4-1S3.8,9.2,3.3,9.2c-0.4,0-0.7,0.1-1,0.4C2,9.8,1.9,10.2,1.8,10.7h-1C0.8,10,1.1,9.5,1.6,9
		c0.5-0.4,1-0.6,1.8-0.6c0.8,0,1.4,0.2,1.8,0.6s0.6,0.9,0.6,1.6c0,0.6-0.2,1.1-0.5,1.5s-0.9,1-1.9,1.8C2.5,14.8,2,15.3,2,15.5h3.8
		V16.4z"/>
	<path class="st0" d="M9.4,8.4c1.7,0,2.6,1.4,2.6,4.1c0,2.7-0.9,4.1-2.6,4.1c-1.7,0-2.6-1.4-2.6-4.1C6.9,9.8,7.7,8.4,9.4,8.4z
		 M9.4,15.8c0.5,0,0.9-0.2,1.1-0.7c0.3-0.5,0.4-1.3,0.4-2.5c0-1.2-0.1-2.1-0.4-2.6S9.9,9.2,9.4,9.2c-0.5,0-0.9,0.2-1.1,0.7
		s-0.4,1.3-0.4,2.6c0,1.2,0.1,2.1,0.4,2.5C8.6,15.5,8.9,15.8,9.4,15.8z"/>
	<path class="st0" d="M16.6,16.4h-1v-6.2c-0.4,0.3-1,0.4-1.9,0.4V9.9c1.2,0,1.9-0.5,2.1-1.4h0.8V16.4z"/>
	<path class="st0" d="M20.4,11.7c0.4-0.3,0.9-0.5,1.5-0.5c0.7,0,1.2,0.2,1.7,0.7c0.5,0.5,0.7,1.1,0.7,1.9c0,0.8-0.2,1.5-0.7,2
		c-0.5,0.5-1.1,0.8-2,0.8c-0.7,0-1.2-0.2-1.7-0.6s-0.7-0.9-0.8-1.6h1c0.1,0.5,0.2,0.8,0.5,1.1c0.3,0.2,0.6,0.3,1,0.3
		c0.5,0,0.9-0.2,1.2-0.6c0.3-0.4,0.5-0.8,0.5-1.4c0-0.6-0.2-1-0.5-1.3c-0.3-0.3-0.7-0.5-1.2-0.5c-0.6,0-1,0.2-1.4,0.7h-0.8l0.3-4.2
		h4.2v0.9h-3.4L20.4,11.7z"/>
</g>
</svg>
