<?xml version="1.0" encoding="utf-8"?>
<!-- Generator: Adobe Illustrator 23.0.3, SVG Export Plug-In . SVG Version: 6.00 Build 0)  -->
<svg version="1.1" id="Слой_1" xmlns="http://www.w3.org/2000/svg" xmlns:xlink="http://www.w3.org/1999/xlink" x="0px" y="0px"
	 viewBox="0 0 30 16" style="enable-background:new 0 0 30 16;" xml:space="preserve">
<style type="text/css">
	.st0{fill:#437F56;}
</style>
<g>
	<path class="st0" d="M6.79,12.45H0.41c0-0.59,0.18-1.15,0.54-1.68s1.03-1.19,2-1.97c0.97-0.78,1.63-1.4,1.99-1.87
		c0.36-0.47,0.54-1,0.54-1.59c0-0.53-0.15-0.95-0.46-1.25c-0.31-0.3-0.74-0.46-1.29-0.46c-0.48,0-0.89,0.15-1.23,0.46
		C2.16,4.4,1.97,4.85,1.92,5.44H0.64C0.71,4.6,1.03,3.92,1.58,3.42c0.55-0.51,1.28-0.76,2.18-0.76c0.96,0,1.7,0.26,2.22,0.77
		C6.5,3.94,6.76,4.59,6.76,5.36c0,0.7-0.19,1.32-0.58,1.85C5.8,7.75,5.04,8.5,3.89,9.46c-1.15,0.95-1.73,1.57-1.75,1.85h4.65V12.45z
		"/>
	<path class="st0" d="M11.22,2.66c2.09,0,3.14,1.66,3.14,4.99c0,3.31-1.05,4.96-3.14,4.96c-2.09,0-3.13-1.65-3.13-4.96
		C8.08,4.32,9.13,2.66,11.22,2.66z M11.22,11.64c0.61,0,1.07-0.29,1.39-0.88c0.32-0.59,0.47-1.62,0.47-3.11
		c0-1.49-0.16-2.54-0.47-3.13c-0.31-0.59-0.78-0.89-1.39-0.89c-0.6,0-1.06,0.3-1.38,0.89C9.52,5.11,9.36,6.16,9.36,7.65
		c0,1.49,0.16,2.53,0.47,3.11C10.15,11.35,10.61,11.64,11.22,11.64z"/>
	<path class="st0" d="M20,12.45h-1.23V4.88c-0.5,0.33-1.27,0.5-2.32,0.5V4.41c1.51,0,2.38-0.58,2.6-1.75H20V12.45z"/>
	<path class="st0" d="M28.06,8.01c-0.63,0.7-1.37,1.05-2.19,1.05c-0.8,0-1.48-0.29-2.03-0.88S23,6.86,23,5.95
		c0-0.91,0.27-1.69,0.82-2.33c0.55-0.64,1.28-0.96,2.19-0.96c1.04,0,1.85,0.4,2.43,1.2c0.58,0.8,0.87,1.96,0.87,3.47
		c0,3.52-1.14,5.29-3.41,5.29c-0.72,0-1.33-0.2-1.83-0.6c-0.5-0.4-0.8-1-0.91-1.79h1.27c0.1,0.95,0.62,1.42,1.54,1.42
		c0.59,0,1.07-0.31,1.43-0.94S27.99,9.18,28.06,8.01z M28.07,7.06c-0.02-1.11-0.21-1.96-0.57-2.54c-0.36-0.59-0.85-0.88-1.46-0.88
		c-0.53,0-0.96,0.21-1.28,0.64c-0.32,0.43-0.48,0.96-0.48,1.6c0,0.65,0.16,1.18,0.49,1.59s0.76,0.62,1.31,0.62
		C26.76,8.09,27.42,7.75,28.07,7.06z"/>
</g>
</svg>
