<?xml version="1.0" encoding="utf-8"?>
<!-- Generator: Adobe Illustrator 23.0.3, SVG Export Plug-In . SVG Version: 6.00 Build 0)  -->
<svg version="1.1" id="Слой_1" xmlns="http://www.w3.org/2000/svg" xmlns:xlink="http://www.w3.org/1999/xlink" x="0px" y="0px"
	 viewBox="0 0 30 16" style="enable-background:new 0 0 30 16;" xml:space="preserve">
<style type="text/css">
	.st0{fill:#437F56;}
</style>
<g>
	<path class="st0" d="M6.79,12.45H0.41c0-0.59,0.18-1.15,0.54-1.68s1.03-1.19,2-1.97c0.97-0.78,1.63-1.4,1.99-1.87
		c0.36-0.47,0.54-1,0.54-1.59c0-0.53-0.15-0.95-0.46-1.25c-0.31-0.3-0.74-0.46-1.29-0.46c-0.48,0-0.89,0.15-1.23,0.46
		C2.16,4.4,1.97,4.85,1.92,5.44H0.64C0.71,4.6,1.03,3.92,1.58,3.42c0.55-0.51,1.28-0.76,2.18-0.76c0.96,0,1.7,0.26,2.22,0.77
		C6.5,3.94,6.76,4.59,6.76,5.36c0,0.7-0.19,1.32-0.58,1.85C5.8,7.75,5.04,8.5,3.89,9.46c-1.15,0.95-1.73,1.57-1.75,1.85h4.65V12.45z
		"/>
	<path class="st0" d="M11.22,2.66c2.09,0,3.14,1.66,3.14,4.99c0,3.31-1.05,4.96-3.14,4.96c-2.09,0-3.13-1.65-3.13-4.96
		C8.08,4.32,9.13,2.66,11.22,2.66z M11.22,11.64c0.61,0,1.07-0.29,1.39-0.88c0.32-0.59,0.47-1.62,0.47-3.11
		c0-1.49-0.16-2.54-0.47-3.13c-0.31-0.59-0.78-0.89-1.39-0.89c-0.6,0-1.06,0.3-1.38,0.89C9.52,5.11,9.36,6.16,9.36,7.65
		c0,1.49,0.16,2.53,0.47,3.11C10.15,11.35,10.61,11.64,11.22,11.64z"/>
	<path class="st0" d="M21.75,12.45h-6.38c0-0.59,0.18-1.15,0.54-1.68c0.36-0.53,1.03-1.19,2-1.97c0.97-0.78,1.63-1.4,1.99-1.87
		c0.36-0.47,0.54-1,0.54-1.59c0-0.53-0.15-0.95-0.46-1.25c-0.31-0.3-0.74-0.46-1.29-0.46c-0.48,0-0.89,0.15-1.23,0.46
		c-0.34,0.31-0.54,0.76-0.58,1.35H15.6c0.07-0.84,0.38-1.52,0.93-2.03c0.55-0.51,1.28-0.76,2.18-0.76c0.96,0,1.7,0.26,2.22,0.77
		c0.52,0.51,0.78,1.16,0.78,1.93c0,0.7-0.19,1.32-0.58,1.85c-0.39,0.54-1.15,1.28-2.29,2.24c-1.14,0.95-1.73,1.57-1.75,1.85h4.65
		V12.45z"/>
	<path class="st0" d="M27.48,12.45h-1.23V4.88c-0.5,0.33-1.27,0.5-2.32,0.5V4.41c1.51,0,2.38-0.58,2.6-1.75h0.95V12.45z"/>
</g>
</svg>
