<?xml version="1.0" encoding="utf-8"?>
<!-- Generator: Adobe Illustrator 22.1.0, SVG Export Plug-In . SVG Version: 6.00 Build 0)  -->
<svg version="1.1" id="Слой_1" xmlns="http://www.w3.org/2000/svg" xmlns:xlink="http://www.w3.org/1999/xlink" x="0px" y="0px"
	 viewBox="0 0 25 25" style="enable-background:new 0 0 25 25;" xml:space="preserve">
<style type="text/css">
	.st0{fill:#FFFFFF;}
</style>
<g>
	<path class="st0" d="M6.6,16.4H1.4c0-0.5,0.1-0.9,0.4-1.4s0.8-1,1.6-1.6c0.8-0.6,1.3-1.1,1.6-1.5c0.3-0.4,0.4-0.8,0.4-1.3
		c0-0.4-0.1-0.8-0.4-1S4.6,9.2,4.1,9.2c-0.4,0-0.7,0.1-1,0.4c-0.3,0.3-0.4,0.6-0.5,1.1h-1C1.7,10,1.9,9.5,2.4,9
		c0.5-0.4,1-0.6,1.8-0.6C5,8.4,5.6,8.6,6,9.1s0.6,0.9,0.6,1.6c0,0.6-0.2,1.1-0.5,1.5s-0.9,1-1.9,1.8c-0.9,0.8-1.4,1.3-1.4,1.5h3.8
		V16.4z"/>
	<path class="st0" d="M10.3,8.4c1.7,0,2.6,1.4,2.6,4.1c0,2.7-0.9,4.1-2.6,4.1c-1.7,0-2.6-1.4-2.6-4.1C7.7,9.8,8.6,8.4,10.3,8.4z
		 M10.3,15.8c0.5,0,0.9-0.2,1.1-0.7c0.3-0.5,0.4-1.3,0.4-2.5c0-1.2-0.1-2.1-0.4-2.6s-0.6-0.7-1.1-0.7c-0.5,0-0.9,0.2-1.1,0.7
		s-0.4,1.3-0.4,2.6c0,1.2,0.1,2.1,0.4,2.5C9.4,15.5,9.8,15.8,10.3,15.8z"/>
	<path class="st0" d="M18.9,16.4h-5.2c0-0.5,0.1-0.9,0.4-1.4c0.3-0.4,0.8-1,1.6-1.6c0.8-0.6,1.3-1.1,1.6-1.5
		c0.3-0.4,0.4-0.8,0.4-1.3c0-0.4-0.1-0.8-0.4-1c-0.3-0.2-0.6-0.4-1.1-0.4c-0.4,0-0.7,0.1-1,0.4c-0.3,0.3-0.4,0.6-0.5,1.1h-1
		c0.1-0.7,0.3-1.2,0.8-1.7c0.5-0.4,1-0.6,1.8-0.6c0.8,0,1.4,0.2,1.8,0.6c0.4,0.4,0.6,0.9,0.6,1.6c0,0.6-0.2,1.1-0.5,1.5
		c-0.3,0.4-0.9,1-1.9,1.8c-0.9,0.8-1.4,1.3-1.4,1.5h3.8V16.4z"/>
	<path class="st0" d="M23.6,16.4h-1v-6.2c-0.4,0.3-1,0.4-1.9,0.4V9.9c1.2,0,1.9-0.5,2.1-1.4h0.8V16.4z"/>
</g>
</svg>
