<?xml version="1.0" encoding="utf-8"?>
<!-- Generator: Adobe Illustrator 23.0.3, SVG Export Plug-In . SVG Version: 6.00 Build 0)  -->
<svg version="1.1" id="Слой_1" xmlns="http://www.w3.org/2000/svg" xmlns:xlink="http://www.w3.org/1999/xlink" x="0px" y="0px"
	 viewBox="0 0 16 16" style="enable-background:new 0 0 16 16;" xml:space="preserve">
<style type="text/css">
	.st0{fill:#437F56;}
</style>
<g>
	<path class="st0" d="M3.74,11.93V2.86h2.81c0.32,0,0.6,0.12,0.83,0.36S7.72,3.75,7.72,4.1v1.96c0,0.29-0.05,0.53-0.16,0.73
		C7.49,6.94,7.39,7.06,7.24,7.17h0.48v3.52c0,0.35-0.12,0.64-0.35,0.88c-0.23,0.24-0.51,0.36-0.83,0.36H3.74z M6.29,6.06V4.23H5.17
		v2.42L6.29,6.06z M6.29,7.68L5.17,8.25v2.31h1.11V7.68z"/>
	<path class="st0" d="M8.77,11.93V8.38c0-0.29,0.05-0.53,0.16-0.73c0.1-0.21,0.28-0.38,0.54-0.51l1.85-0.95V4.23H10.2v0.85L8.77,5.8
		V4.1c0-0.35,0.12-0.64,0.35-0.88s0.51-0.36,0.83-0.36h1.63c0.32,0,0.6,0.12,0.83,0.36s0.35,0.53,0.35,0.88v2.09
		c0,0.29-0.05,0.53-0.16,0.73c-0.1,0.21-0.28,0.38-0.54,0.51L10.2,8.38v2.18h2.55v1.37H8.77z"/>
</g>
</svg>
