<?xml version="1.0" encoding="utf-8"?>
<!-- Generator: Adobe Illustrator 22.1.0, SVG Export Plug-In . SVG Version: 6.00 Build 0)  -->
<svg version="1.1" id="Слой_1" xmlns="http://www.w3.org/2000/svg" xmlns:xlink="http://www.w3.org/1999/xlink" x="0px" y="0px"
	 viewBox="0 0 25 25" style="enable-background:new 0 0 25 25;" xml:space="preserve">
<style type="text/css">
	.st0{fill:#FFFFFF;}
</style>
<g>
	<path class="st0" d="M2.6,22.5v-20h6.2c0.7,0,1.3,0.3,1.8,0.8c0.5,0.5,0.8,1.2,0.8,1.9v4.3c0,0.6-0.1,1.2-0.3,1.6
		c-0.2,0.3-0.4,0.6-0.7,0.8h1.1v7.8c0,0.8-0.3,1.4-0.8,1.9c-0.5,0.5-1.1,0.8-1.8,0.8H2.6z M8.2,9.5v-4H5.7v5.3L8.2,9.5z M8.2,13.1
		l-2.4,1.3v5.1h2.4V13.1z"/>
	<path class="st0" d="M13.7,22.5v-7.8c0-0.6,0.1-1.2,0.3-1.6c0.2-0.5,0.6-0.8,1.2-1.1l4.1-2.1V5.5h-2.4v1.9L13.7,9V5.2
		c0-0.8,0.3-1.4,0.8-1.9c0.5-0.5,1.1-0.8,1.8-0.8h3.6c0.7,0,1.3,0.3,1.8,0.8c0.5,0.5,0.8,1.2,0.8,1.9v4.6c0,0.6-0.1,1.2-0.3,1.6
		c-0.2,0.5-0.6,0.8-1.2,1.1l-4.1,2.1v4.8h5.6v3H13.7z"/>
</g>
</svg>
