<?xml version="1.0" encoding="utf-8"?>
<!-- Generator: Adobe Illustrator 22.1.0, SVG Export Plug-In . SVG Version: 6.00 Build 0)  -->
<svg version="1.1" id="Слой_1" xmlns="http://www.w3.org/2000/svg" xmlns:xlink="http://www.w3.org/1999/xlink" x="0px" y="0px"
	 viewBox="0 0 25 25" style="enable-background:new 0 0 25 25;" xml:space="preserve">
<style type="text/css">
	.st0{fill:#FFFFFF;}
</style>
<g>
	<path class="st0" d="M8.2,17.1l3.2-1.6v4.4c0,0.8-0.3,1.4-0.8,2c-0.5,0.5-1.1,0.8-1.9,0.8H5.1c-0.7,0-1.3-0.3-1.9-0.8
		c-0.5-0.6-0.8-1.2-0.8-2V5.1c0-0.8,0.3-1.4,0.8-2s1.1-0.8,1.9-0.8h3.7c0.7,0,1.3,0.3,1.9,0.8c0.5,0.5,0.8,1.2,0.8,2v1.8L8.2,8.5
		V5.4H5.7v14.3h2.5V17.1z"/>
	<path class="st0" d="M13.5,22.7v-8c0-0.6,0.1-1.2,0.4-1.6c0.2-0.5,0.6-0.9,1.2-1.1l4.2-2.1V5.4h-2.5v1.9l-3.2,1.6V5.1
		c0-0.8,0.3-1.4,0.8-2c0.5-0.5,1.1-0.8,1.9-0.8h3.7c0.7,0,1.3,0.3,1.9,0.8c0.5,0.5,0.8,1.2,0.8,2v4.7c0,0.6-0.1,1.2-0.4,1.6
		c-0.2,0.5-0.6,0.9-1.2,1.1l-4.2,2.1v4.9h5.7v3.1H13.5z"/>
</g>
</svg>
