<?xml version="1.0" encoding="utf-8"?>
<!-- Generator: Adobe Illustrator 23.0.3, SVG Export Plug-In . SVG Version: 6.00 Build 0)  -->
<svg version="1.1" id="Слой_1" xmlns="http://www.w3.org/2000/svg" xmlns:xlink="http://www.w3.org/1999/xlink" x="0px" y="0px"
	 viewBox="0 0 16 16" style="enable-background:new 0 0 16 16;" xml:space="preserve">
<style type="text/css">
	.st0{fill:#437F56;}
</style>
<g>
	<path class="st0" d="M6.21,9.36l1.44-0.72v1.96c0,0.35-0.12,0.64-0.35,0.88c-0.23,0.24-0.51,0.36-0.83,0.36H4.84
		c-0.32,0-0.6-0.12-0.83-0.37c-0.23-0.24-0.35-0.54-0.35-0.88V4.01c0-0.35,0.12-0.64,0.35-0.88s0.51-0.36,0.83-0.36h1.63
		c0.32,0,0.6,0.12,0.83,0.36s0.35,0.53,0.35,0.88v0.78L6.21,5.51V4.14H5.1v6.33h1.11V9.36z"/>
	<path class="st0" d="M8.56,11.84V8.29c0-0.29,0.05-0.53,0.16-0.73C8.82,7.35,9,7.18,9.25,7.05L11.1,6.1V4.14H9.99v0.85L8.56,5.7
		v-1.7c0-0.35,0.12-0.64,0.35-0.88c0.23-0.24,0.51-0.36,0.83-0.36h1.63c0.32,0,0.6,0.12,0.83,0.36s0.35,0.53,0.35,0.88V6.1
		c0,0.29-0.05,0.53-0.16,0.73c-0.1,0.21-0.28,0.38-0.54,0.51L9.99,8.29v2.18h2.55v1.37H8.56z"/>
</g>
</svg>
