<?xml version="1.0" encoding="utf-8"?>
<!-- Generator: Adobe Illustrator 23.0.3, SVG Export Plug-In . SVG Version: 6.00 Build 0)  -->
<svg version="1.1" id="Слой_1" xmlns="http://www.w3.org/2000/svg" xmlns:xlink="http://www.w3.org/1999/xlink" x="0px" y="0px"
	 viewBox="0 0 16 16" style="enable-background:new 0 0 16 16;" xml:space="preserve">
<style type="text/css">
	.st0{fill:#437F56;}
</style>
<g>
	<g>
		<path class="st0" d="M14.67,0.69l-1.21,12.99l-5.24,1.6l-5.48-1.51L1.79,0.69H14.67 M15.32,0.1H1.15l1.04,14.14l6.05,1.66
			l5.78-1.76L15.32,0.1L15.32,0.1z"/>
	</g>
	<polygon class="st0" points="8.24,12.91 4.9,11.89 4.47,9.44 6.08,9.43 6.3,10.66 8.24,11.25 10.39,10.58 10.49,8.06 4.72,8.06 
		4.58,6.46 8.71,4.75 4.2,4.75 4.05,3.16 12.61,3.16 12.49,4.74 8.7,6.47 12.34,6.47 11.94,11.77 	"/>
</g>
</svg>
