<?xml version="1.0" encoding="utf-8"?>
<!-- Generator: Adobe Illustrator 23.0.3, SVG Export Plug-In . SVG Version: 6.00 Build 0)  -->
<svg version="1.1" id="Слой_1" xmlns="http://www.w3.org/2000/svg" xmlns:xlink="http://www.w3.org/1999/xlink" x="0px" y="0px"
	 viewBox="0 0 16 16" style="enable-background:new 0 0 16 16;" xml:space="preserve">
<style type="text/css">
	.st0{fill:#437F56;}
</style>
<g>
	<path class="st0" d="M15.88,7.87c0-0.06-0.01-0.12-0.01-0.18c0,0,0,0,0,0c0,0,0,0,0,0c-0.06-0.66-0.28-1.29-0.65-1.85
		c-0.17-0.25-0.36-0.48-0.57-0.68c-0.31-0.3-0.67-0.55-1.08-0.74c-0.61-0.29-1.28-0.44-2-0.44c-0.07,0-0.14,0-0.22,0
		C10.84,4,10.35,4.1,9.89,4.27C9.43,4.43,9.03,4.65,8.7,4.92C8.63,4.97,8.56,5.04,8.48,5.11L8.42,5.17L8.34,5.25l0,0l0,0L8.31,5.28
		L8.29,5.3L8.2,5.4C8.13,5.48,8.06,5.55,8,5.63v0l0,0C7.88,5.78,7.76,5.94,7.67,6.08C7.62,6.17,7.56,6.27,7.5,6.36L6.75,7.89l0,0
		L6.71,7.96L6.63,8.13C6.46,8.47,6.29,8.8,6.09,9.08C5.65,9.56,5.15,9.79,4.51,9.79c-0.04,0-0.09,0-0.14-0.01
		C3.98,9.77,3.65,9.68,3.36,9.51C3.33,9.49,3.3,9.47,3.27,9.45C3.03,9.29,2.85,9.09,2.71,8.83c-0.16-0.29-0.22-0.58-0.21-0.9
		c0-0.01,0-0.02,0-0.02c0.02-0.5,0.21-0.89,0.59-1.22c0.09-0.08,0.19-0.15,0.29-0.21c0.01-0.01,0.03-0.02,0.04-0.02
		C3.71,6.3,4.03,6.22,4.4,6.22l0.12,0c0.59,0.02,1.05,0.21,1.41,0.57l1.14-2.04C6.8,4.56,6.49,4.41,6.15,4.28
		C6.14,4.27,6.12,4.27,6.11,4.27C6.07,4.25,6.03,4.24,5.99,4.22C5.63,4.1,5.25,4.03,4.86,3.99l0,0c-0.01,0-0.02,0-0.03,0
		c-0.06,0-0.12-0.01-0.18-0.01c-0.07,0-0.13,0-0.19,0H4.42c-0.72,0-1.38,0.15-1.99,0.44C1.75,4.74,1.2,5.22,0.79,5.84
		c-0.41,0.62-0.63,1.3-0.66,2.03c0,0.06,0,0.12,0,0.19c0,1.03,0.37,1.93,1.12,2.69c0.78,0.8,1.79,1.22,3,1.28
		c0.08,0,0.15,0.01,0.23,0.01c0.69,0,1.32-0.12,1.89-0.37c0.14-0.06,0.28-0.13,0.42-0.21C6.86,11.4,6.93,11.36,7,11.31l0.05-0.04
		l0.09-0.06c0.11-0.08,0.21-0.16,0.31-0.25l0.03-0.03c0.06-0.06,0.12-0.11,0.17-0.17l0.2-0.23l0.08-0.1l0.04-0.05l0.04-0.05
		C8.31,9.81,9.3,7.96,9.3,7.96v0l0.06-0.11l0.05-0.09C9.55,7.49,9.66,7.3,9.8,7.1l0-0.01c0.32-0.47,0.88-0.81,1.54-0.86
		c1.1-0.09,2.07,0.63,2.16,1.62c0.09,0.99-0.74,1.87-1.84,1.96c-0.23,0.02-0.45,0-0.66-0.04l-0.01,0c-0.81-0.17-1.33-0.76-1.58-1.02
		l-1.06,1.95c0,0,0.33,0.33,0.56,0.5c0.23,0.17,0.52,0.33,0.75,0.43c0.57,0.24,1.18,0.39,1.86,0.39c0.08,0,0.06,0,0.14,0
		c1.21-0.05,2.29-0.51,3.07-1.31c0.74-0.76,1.14-1.62,1.14-2.64V8.04C15.88,7.99,15.88,7.93,15.88,7.87L15.88,7.87z"/>
</g>
</svg>
