<?xml version="1.0" encoding="utf-8"?>
<!-- Generator: Adobe Illustrator 23.0.3, SVG Export Plug-In . SVG Version: 6.00 Build 0)  -->
<svg version="1.1" id="Слой_1" xmlns="http://www.w3.org/2000/svg" xmlns:xlink="http://www.w3.org/1999/xlink" x="0px" y="0px"
	 viewBox="0 0 50 50" style="enable-background:new 0 0 50 50;" xml:space="preserve">
<style type="text/css">
	.st0{fill:#FFFFFF;}
</style>
<g>
	<g>
		<path class="st0" d="M25.84,3.66c-12.09,0-21.83,9.74-21.83,21.83c0,9.74,6.21,17.8,14.95,20.66c1.01,0.17,1.51-0.5,1.51-1.01
			s0-2.18,0-4.03c-5.54,1.01-6.89-1.34-7.39-2.52c-0.17-0.67-1.34-2.52-2.18-3.02c-0.84-0.34-1.85-1.34,0-1.51
			c1.68,0,3.02,1.51,3.36,2.18c2.02,3.36,5.04,2.35,6.38,1.85c0.17-1.34,0.84-2.35,1.34-2.86c-4.87-0.5-9.91-2.35-9.91-10.75
			c0-2.35,0.84-4.37,2.18-5.88c-0.34-0.67-1.01-2.86,0.17-5.88c0,0,1.85-0.5,6.05,2.18c1.68-0.5,3.53-0.67,5.54-0.67
			c1.85,0,3.7,0.17,5.54,0.67c4.2-2.86,6.05-2.18,6.05-2.18c1.18,3.02,0.5,5.21,0.17,5.71c1.34,1.51,2.18,3.53,2.18,5.88
			c0,8.4-5.04,10.25-9.91,10.75c0.84,0.67,1.51,2.02,1.51,4.03c0,2.86,0,5.21,0,6.05c0,0.5,0.34,1.18,1.51,1.01
			c8.4-2.86,14.61-11.09,14.61-20.66C47.68,13.4,37.93,3.66,25.84,3.66z"/>
	</g>
</g>
</svg>
