<?xml version="1.0" encoding="utf-8"?>
<!-- Generator: Adobe Illustrator 23.0.3, SVG Export Plug-In . SVG Version: 6.00 Build 0)  -->
<svg version="1.1" id="Слой_1" xmlns="http://www.w3.org/2000/svg" xmlns:xlink="http://www.w3.org/1999/xlink" x="0px" y="0px"
	 viewBox="0 0 16 16" style="enable-background:new 0 0 16 16;" xml:space="preserve">
<style type="text/css">
	.st0{fill:#437F56;}
</style>
<path class="st0" d="M1.91,4l11.11,7.95l-1.75-0.33l2.06-0.59l-1.27,1.74l0-10.09l1.2,1.72L11.2,3.56l1.73-0.31l-10.87,8.6
	c-0.48,0.37-0.97,0.06-1.34-0.41c-0.35-0.45-0.76-0.96-0.36-1.34l10.31-9.5c0.44-0.41,0.97-0.48,1.3-0.32s2.52,1.23,2.52,1.23
	c0.68,0.35,1.23,0.49,1.23,1.11l0,10.16c0.01,0.94,0.15,0.95-1.12,1.58l-2.18,1.05c-0.61,0.21-1.01,0.66-1.89-0.36L0.45,5.88
	C0,5.46,0.2,4.95,0.61,4.49C1,4.06,1.45,3.67,1.91,4z"/>
</svg>
