<?xml version="1.0" encoding="utf-8"?>
<!-- Generator: Adobe Illustrator 23.0.3, SVG Export Plug-In . SVG Version: 6.00 Build 0)  -->
<svg version="1.1" id="Слой_1" xmlns="http://www.w3.org/2000/svg" xmlns:xlink="http://www.w3.org/1999/xlink" x="0px" y="0px"
	 viewBox="0 0 16 16" style="enable-background:new 0 0 16 16;" xml:space="preserve">
<style type="text/css">
	.st0{fill:#437F56;}
</style>
<path class="st0" d="M15.47,7.39L8.72,0.65c-0.4-0.4-1.05-0.4-1.45,0l-1.4,1.4l1.78,1.79C7.77,3.79,7.9,3.77,8.04,3.77
	c0.65,0,1.18,0.53,1.18,1.18c0,0.14-0.02,0.27-0.07,0.4l1.74,1.76c0.13-0.05,0.26-0.07,0.41-0.07c0.65,0,1.17,0.53,1.17,1.18
	c0,0.65-0.53,1.18-1.17,1.18c-0.65,0-1.18-0.53-1.18-1.18c0-0.18,0.04-0.35,0.11-0.5l-1.68-1.7L8.51,5.97v0.05L8.5,10.38
	c0.42,0.18,0.71,0.6,0.71,1.08c0,0.65-0.53,1.18-1.18,1.18c-0.65,0-1.18-0.53-1.18-1.18c0-0.5,0.31-0.92,0.74-1.09l0.01-4.33
	c-0.44-0.17-0.75-0.6-0.75-1.1c0-0.18,0.04-0.36,0.12-0.51L5.24,2.68L0.53,7.39c-0.4,0.4-0.4,1.05,0,1.45l6.74,6.74
	c0.4,0.4,1.05,0.4,1.45,0l6.74-6.74C15.87,8.44,15.87,7.79,15.47,7.39z"/>
</svg>
