<?xml version="1.0" encoding="utf-8"?>
<!-- Generator: Adobe Illustrator 23.0.3, SVG Export Plug-In . SVG Version: 6.00 Build 0)  -->
<svg version="1.1" id="Слой_1" xmlns="http://www.w3.org/2000/svg" xmlns:xlink="http://www.w3.org/1999/xlink" x="0px" y="0px"
	 viewBox="0 0 16 16" style="enable-background:new 0 0 16 16;" xml:space="preserve">
<style type="text/css">
	.st0{fill:#437F56;}
</style>
<g>
	<g>
		<path class="st0" d="M14.67,0.73l-1.21,12.99l-5.24,1.6l-5.48-1.51L1.79,0.73H14.67 M15.32,0.14H1.15l1.04,14.14l6.05,1.66
			l5.78-1.76L15.32,0.14L15.32,0.14z"/>
	</g>
	<polygon class="st0" points="12.12,4.73 4.8,4.74 5.58,3.85 5.82,7.2 5.2,6.55 11.31,6.55 12.19,6.55 12.1,7.42 11.7,11.25 
		11.65,11.78 11.14,11.93 8.51,12.7 8.27,12.77 8.04,12.7 5.15,11.8 4.68,11.65 4.6,11.17 4.48,9.35 5.9,9.36 6.17,10.91 
		5.62,10.28 8.52,11.18 8.06,11.18 10.69,10.4 10.12,11.08 10.52,7.26 11.31,8.13 5.2,8.13 4.49,8.13 4.41,7.43 4.01,4.04 3.9,3.15 
		4.8,3.15 12.27,3.16 	"/>
</g>
</svg>
