<?xml version="1.0" encoding="utf-8"?>
<!-- Generator: Adobe Illustrator 23.0.3, SVG Export Plug-In . SVG Version: 6.00 Build 0)  -->
<svg version="1.1" id="Слой_1" xmlns="http://www.w3.org/2000/svg" xmlns:xlink="http://www.w3.org/1999/xlink" x="0px" y="0px"
	 viewBox="0 0 16 16" style="enable-background:new 0 0 16 16;" xml:space="preserve">
<style type="text/css">
	.st0{fill:#437F56;}
</style>
<g>
	<g>
		<path class="st0" d="M14.67,0.69l-1.21,12.99l-5.24,1.6l-5.48-1.51L1.79,0.69H14.67 M15.32,0.1H1.15l1.04,14.14l6.05,1.66
			l5.78-1.76L15.32,0.1L15.32,0.1z"/>
	</g>
	<polygon class="st0" points="7.75,12.91 3.44,11.8 3.44,10.17 6.16,10.8 6.16,3.07 7.75,3.07 	"/>
	<polygon class="st0" points="8.83,12.91 8.83,11.35 11.07,10.78 11.24,8.68 8.77,9.1 8.77,3.03 13.17,3.07 13.07,4.61 10.35,4.61 
		10.35,7.22 12.99,6.78 12.56,12 	"/>
</g>
</svg>
