<?xml version="1.0" encoding="utf-8"?>
<!-- Generator: Adobe Illustrator 23.0.3, SVG Export Plug-In . SVG Version: 6.00 Build 0)  -->
<svg version="1.1" id="Слой_1" xmlns="http://www.w3.org/2000/svg" xmlns:xlink="http://www.w3.org/1999/xlink" x="0px" y="0px"
	 viewBox="0 0 25 25" style="enable-background:new 0 0 25 25;" xml:space="preserve">
<style type="text/css">
	.st0{fill:#FFFFFF;}
</style>
<g>
	<g id="Layer_x0020_1_1_">
		<path class="st0" d="M12.5,0.25L12.5,0.25L12.5,0.25c3.38,0,6.45,1.37,8.66,3.59c2.22,2.22,3.59,5.28,3.59,8.66h0v0h0
			c0,3.38-1.37,6.45-3.59,8.66c-2.22,2.22-5.28,3.59-8.66,3.59v0h0v0c-3.38,0-6.45-1.37-8.66-3.59c-2.22-2.22-3.59-5.28-3.59-8.66h0
			v0h0c0-3.38,1.37-6.45,3.59-8.66C6.05,1.62,9.12,0.25,12.5,0.25L12.5,0.25L12.5,0.25z M12.5,1.71L12.5,1.71L12.5,1.71L12.5,1.71
			c-2.98,0-5.67,1.21-7.63,3.16C2.92,6.83,1.71,9.52,1.71,12.5h0v0h0c0,2.98,1.21,5.67,3.16,7.63c1.95,1.95,4.65,3.16,7.63,3.16v0h0
			v0c2.98,0,5.67-1.21,7.63-3.16c1.95-1.95,3.16-4.65,3.16-7.63h0v0h0c0-2.98-1.21-5.67-3.16-7.63C18.17,2.92,15.48,1.71,12.5,1.71z
			"/>
	</g>
	<g>
		<path class="st0" d="M7.05,8.34c-0.47,0-0.86-0.14-1.16-0.42C5.59,7.64,5.44,7.3,5.44,6.89c0-0.42,0.15-0.76,0.45-1.02
			c0.3-0.27,0.69-0.4,1.16-0.4c0.48,0,0.86,0.13,1.16,0.4c0.3,0.26,0.45,0.61,0.45,1.02c0,0.42-0.15,0.77-0.45,1.04
			C7.91,8.21,7.53,8.34,7.05,8.34z M8.43,18.81H5.64V9.77h2.79V18.81z"/>
		<path class="st0" d="M19.5,18.81h-2.78v-5.02c0-1.4-0.5-2.1-1.5-2.1c-0.48,0-0.88,0.19-1.19,0.56c-0.31,0.37-0.47,0.84-0.47,1.41
			v5.15h-2.79V9.77h2.79v1.43h0.04c0.67-1.1,1.63-1.65,2.9-1.65c2,0,3,1.24,3,3.72V18.81z"/>
	</g>
</g>
</svg>
