<?xml version="1.0" encoding="utf-8"?>
<!-- Generator: Adobe Illustrator 23.0.3, SVG Export Plug-In . SVG Version: 6.00 Build 0)  -->
<svg version="1.1" id="Слой_1" xmlns="http://www.w3.org/2000/svg" xmlns:xlink="http://www.w3.org/1999/xlink" x="0px" y="0px"
	 viewBox="0 0 25 25" style="enable-background:new 0 0 25 25;" xml:space="preserve">
<style type="text/css">
	.st0{fill:#FFFFFF;}
</style>
<g>
	<g id="Layer_x0020_1_3_">
		<path class="st0" d="M12.5,0.25L12.5,0.25L12.5,0.25c3.38,0,6.45,1.37,8.66,3.59c2.22,2.22,3.59,5.28,3.59,8.66h0v0h0
			c0,3.38-1.37,6.45-3.59,8.66c-2.22,2.22-5.28,3.59-8.66,3.59v0h0v0c-3.38,0-6.45-1.37-8.66-3.59c-2.22-2.22-3.59-5.28-3.59-8.66h0
			v0h0c0-3.38,1.37-6.45,3.59-8.66C6.05,1.62,9.12,0.25,12.5,0.25L12.5,0.25L12.5,0.25z M12.5,1.71L12.5,1.71L12.5,1.71L12.5,1.71
			c-2.98,0-5.67,1.21-7.63,3.16C2.92,6.83,1.71,9.52,1.71,12.5h0v0h0c0,2.98,1.21,5.67,3.16,7.63c1.95,1.95,4.65,3.16,7.63,3.16v0h0
			v0c2.98,0,5.67-1.21,7.63-3.16c1.95-1.95,3.16-4.65,3.16-7.63h0v0h0c0-2.98-1.21-5.67-3.16-7.63C18.17,2.92,15.48,1.71,12.5,1.71z
			"/>
	</g>
	<path class="st0" d="M5.04,7.51C5.4,7.77,6.81,8.78,8.32,9.78c1.61,1.06,2.61,1.63,3.23,1.93c0,0,0,0,0,0
		c0.02,0.01,0.03,0.02,0.05,0.02c0.57,0.27,0.8,0.31,0.89,0.31h0c0.08,0,0.31-0.04,0.89-0.32c0,0,0,0,0,0
		c0.01-0.01,0.02-0.01,0.03-0.02c0,0,0,0,0,0c0.62-0.3,1.63-0.87,3.26-1.94c1.51-0.99,2.91-2,3.28-2.26H5.04z M17.18,10.53
		c-1.2,0.79-2.09,1.32-2.75,1.69l3.07,2.46c0.19,0.16,0.23,0.44,0.07,0.64c-0.09,0.11-0.22,0.17-0.35,0.17c-0.1,0-0.2-0.03-0.28-0.1
		l-3.4-2.72c-0.55,0.24-0.84,0.29-1.03,0.3h-0.01c-0.19,0-0.49-0.05-1.04-0.3l-3.36,2.72c-0.08,0.07-0.18,0.1-0.28,0.1
		c-0.13,0-0.26-0.06-0.35-0.17c-0.16-0.19-0.13-0.48,0.07-0.64l3.04-2.46c-0.67-0.36-1.55-0.9-2.74-1.68
		C6.47,9.65,5.21,8.75,4.67,8.36v9.13h15.65V8.36C19.79,8.74,18.53,9.64,17.18,10.53z"/>
</g>
</svg>
