<?xml version="1.0" encoding="utf-8"?>
<!-- Generator: Adobe Illustrator 23.0.3, SVG Export Plug-In . SVG Version: 6.00 Build 0)  -->
<svg version="1.1" id="Слой_1" xmlns="http://www.w3.org/2000/svg" xmlns:xlink="http://www.w3.org/1999/xlink" x="0px" y="0px"
	 viewBox="0 0 25 25" style="enable-background:new 0 0 25 25;" xml:space="preserve">
<style type="text/css">
	.st0{fill-rule:evenodd;clip-rule:evenodd;fill:#FFFFFF;}
	.st1{fill:#FFFFFF;}
</style>
<g id="Layer_x0020_1">
	<g id="_152222920">
		<path id="_152222248" class="st0" d="M10.42,9.71c-2.29,1.32,1.2,7.87,3.71,6.42c0.44,0.77,1.88,3.25,2.32,4.02
			c-1.06,0.61-1.95,0.99-3.18,0.29c-3.4-1.94-7.15-8.43-7.04-12.29C6.27,6.81,7.06,6.29,8.1,5.69C8.54,6.46,9.97,8.94,10.42,9.71
			L10.42,9.71z"/>
		<path id="_150519168" class="st0" d="M11.38,9.6c-0.25,0.14-0.57,0.06-0.71-0.19L8.48,5.62C8.34,5.37,8.42,5.05,8.67,4.91
			l1.15-0.66c0.25-0.14,0.57-0.06,0.71,0.19l2.19,3.79c0.14,0.25,0.06,0.57-0.19,0.71L11.38,9.6L11.38,9.6z"/>
		<path id="_226148072" class="st0" d="M17.36,19.96c-0.25,0.14-0.57,0.06-0.71-0.19l-2.19-3.79c-0.14-0.25-0.06-0.57,0.19-0.71
			l1.15-0.66c0.25-0.14,0.57-0.06,0.71,0.19l2.19,3.79c0.14,0.25,0.06,0.57-0.19,0.71L17.36,19.96L17.36,19.96z"/>
	</g>
	<path class="st1" d="M12.5,0.26L12.5,0.26L12.5,0.26c3.38,0,6.44,1.37,8.66,3.59c2.21,2.21,3.58,5.28,3.58,8.66h0v0h0
		c0,3.38-1.37,6.44-3.58,8.66c-2.21,2.21-5.28,3.58-8.66,3.58v0h0v0c-3.38,0-6.44-1.37-8.66-3.58c-2.21-2.21-3.58-5.28-3.58-8.66h0
		v0h0c0-3.38,1.37-6.44,3.58-8.66C6.06,1.63,9.12,0.26,12.5,0.26L12.5,0.26L12.5,0.26z M12.5,1.72L12.5,1.72L12.5,1.72L12.5,1.72
		c-2.98,0-5.67,1.21-7.62,3.16C2.92,6.83,1.72,9.53,1.72,12.5h0v0h0c0,2.97,1.21,5.67,3.16,7.62c1.95,1.95,4.65,3.16,7.62,3.16v0h0
		v0c2.97,0,5.67-1.21,7.62-3.16c1.95-1.95,3.16-4.65,3.16-7.62h0v0h0c0-2.97-1.21-5.67-3.16-7.62C18.17,2.92,15.47,1.72,12.5,1.72z"
		/>
</g>
</svg>
