<?xml version="1.0" encoding="utf-8"?>
<!-- Generator: Adobe Illustrator 23.0.3, SVG Export Plug-In . SVG Version: 6.00 Build 0)  -->
<svg version="1.1" id="Слой_1" xmlns="http://www.w3.org/2000/svg" xmlns:xlink="http://www.w3.org/1999/xlink" x="0px" y="0px"
	 viewBox="0 0 150 50" style="enable-background:new 0 0 150 50;" xml:space="preserve">
<style type="text/css">
	.st0{fill:#FFFFFF;}
	.st1{clip-path:url(#SVGID_1_);}
	.st2{clip-path:url(#SVGID_2_);}
	.st3{fill:none;stroke:#FFFFFF;stroke-width:0.8555;stroke-miterlimit:10;}
</style>
<g>
	<path class="st0" d="M80.04,16.23l5.63-0.36c0.13,0.92,0.36,1.6,0.75,2.1c0.62,0.77,1.48,1.15,2.61,1.15c0.83,0,1.5-0.19,1.95-0.6
		c0.43-0.32,0.68-0.83,0.68-1.37c0-0.51-0.24-1.01-0.64-1.33c-0.43-0.38-1.43-0.77-3.02-1.11c-2.59-0.58-4.45-1.35-5.54-2.33
		c-1.09-0.92-1.71-2.27-1.67-3.7c0-0.98,0.3-1.97,0.86-2.78c0.64-0.92,1.52-1.65,2.57-2.05c1.13-0.49,2.72-0.75,4.71-0.75
		c2.44,0,4.3,0.45,5.58,1.37c1.28,0.9,2.05,2.35,2.29,4.34l-5.56,0.32c-0.15-0.86-0.45-1.48-0.94-1.88c-0.49-0.41-1.13-0.6-1.97-0.6
		c-0.68,0-1.2,0.15-1.54,0.43c-0.32,0.26-0.53,0.64-0.51,1.07c0,0.32,0.17,0.62,0.43,0.81c0.28,0.26,0.94,0.49,1.99,0.71
		c2.59,0.56,4.43,1.11,5.56,1.69c1.13,0.58,1.95,1.28,2.44,2.12c0.51,0.86,0.77,1.84,0.75,2.84c0,1.2-0.34,2.4-1.03,3.4
		c-0.71,1.05-1.69,1.86-2.84,2.35c-1.22,0.53-2.76,0.81-4.6,0.81c-3.25,0-5.5-0.62-6.76-1.88S80.19,18.15,80.04,16.23z M20.34,22.56
		V3.44h9.86c1.82,0,3.23,0.15,4.19,0.47c0.94,0.3,1.78,0.92,2.33,1.75c0.62,0.92,0.92,1.99,0.9,3.1c0.06,1.88-0.9,3.68-2.55,4.62
		c-0.64,0.36-1.35,0.62-2.07,0.75c0.53,0.15,1.07,0.41,1.54,0.71c0.36,0.3,0.66,0.64,0.94,1.01c0.32,0.36,0.6,0.77,0.83,1.2
		l2.87,5.54h-6.72l-3.17-5.88c-0.41-0.75-0.75-1.24-1.07-1.48c-0.43-0.3-0.94-0.45-1.45-0.45h-0.51v7.76h-5.92V22.56z M26.27,11.18
		h2.5c0.53-0.04,1.05-0.13,1.56-0.26c0.38-0.06,0.73-0.28,0.96-0.6c0.58-0.77,0.49-1.86-0.21-2.52c-0.38-0.32-1.13-0.49-2.2-0.49
		h-2.61V11.18z M19,38.94l5.63-0.36c0.13,0.92,0.36,1.6,0.75,2.1c0.6,0.77,1.48,1.18,2.61,1.18c0.83,0,1.5-0.19,1.95-0.6
		c0.43-0.34,0.68-0.83,0.68-1.37c0-0.51-0.24-1.01-0.64-1.33c-0.43-0.38-1.43-0.77-3.04-1.11c-2.59-0.58-4.45-1.35-5.54-2.33
		c-1.09-0.92-1.71-2.27-1.67-3.7c0-0.98,0.3-1.97,0.86-2.78c0.64-0.92,1.52-1.65,2.57-2.05c1.13-0.49,2.72-0.75,4.71-0.75
		c2.44,0,4.3,0.45,5.58,1.37c1.28,0.92,2.03,2.35,2.27,4.34l-5.56,0.32c-0.15-0.86-0.45-1.48-0.94-1.88
		c-0.47-0.41-1.13-0.6-1.97-0.58c-0.68,0-1.2,0.15-1.54,0.45c-0.34,0.26-0.53,0.64-0.51,1.07c0,0.32,0.17,0.62,0.43,0.81
		c0.28,0.26,0.94,0.49,1.99,0.71c2.59,0.56,4.43,1.11,5.56,1.69c1.13,0.58,1.95,1.28,2.44,2.12c0.51,0.86,0.77,1.84,0.77,2.82
		c0,1.2-0.36,2.37-1.03,3.38c-0.71,1.05-1.69,1.86-2.84,2.35c-1.22,0.53-2.76,0.81-4.6,0.81c-3.25,0-5.5-0.62-6.76-1.88
		C19.87,42.45,19.17,40.87,19,38.94L19,38.94z"/>
	<path class="st0" d="M47.44,37.44L52.62,39c-0.28,1.3-0.86,2.55-1.65,3.64c-0.73,0.96-1.69,1.71-2.78,2.2
		c-1.11,0.49-2.52,0.75-4.23,0.75c-2.07,0-3.79-0.3-5.09-0.9c-1.33-0.6-2.46-1.67-3.42-3.19c-0.96-1.52-1.43-3.46-1.43-5.84
		c0-3.17,0.83-5.6,2.52-7.29c1.69-1.69,4.06-2.55,7.14-2.55c2.42,0,4.3,0.49,5.69,1.45c1.37,0.98,2.4,2.48,3.08,4.49l-5.22,1.15
		c-0.13-0.45-0.32-0.9-0.58-1.28c-0.32-0.45-0.73-0.79-1.22-1.05c-0.49-0.26-1.05-0.36-1.6-0.36c-1.35,0-2.37,0.53-3.08,1.63
		c-0.53,0.79-0.81,2.05-0.81,3.76c0,2.12,0.32,3.57,0.96,4.36c0.64,0.79,1.54,1.18,2.72,1.18c1.13,0,1.99-0.32,2.57-0.94
		C46.76,39.56,47.19,38.64,47.44,37.44L47.44,37.44z M59.53,26.15h5.9v6.69h6.46v-6.69h5.95v19.12h-5.95v-7.74h-6.46v7.74h-5.9
		V26.15z"/>
	<path class="st0" d="M77.02,35.71c0-3.12,0.88-5.56,2.61-7.29c1.73-1.73,4.17-2.61,7.27-2.61c3.19,0,5.63,0.86,7.36,2.57
		s2.59,4.11,2.59,7.19c0,2.25-0.38,4.06-1.13,5.5c-0.73,1.41-1.86,2.57-3.25,3.34c-1.43,0.79-3.21,1.2-5.33,1.2
		c-2.16,0-3.94-0.34-5.35-1.03c-1.45-0.73-2.65-1.86-3.44-3.25C77.47,39.82,77.02,37.96,77.02,35.71z M82.93,35.73
		c0,1.92,0.36,3.32,1.07,4.17c0.71,0.83,1.69,1.26,2.93,1.26c1.26,0,2.25-0.41,2.95-1.24c0.71-0.83,1.05-2.31,1.05-4.45
		c0-1.8-0.36-3.12-1.09-3.94c-0.73-0.83-1.71-1.24-2.95-1.24c-1.09-0.04-2.14,0.43-2.87,1.26S82.93,33.79,82.93,35.73L82.93,35.73z
		 M102.9,35.71c0-3.12,0.88-5.56,2.61-7.29c1.73-1.73,4.17-2.61,7.27-2.61c3.19,0,5.65,0.86,7.36,2.57s2.59,4.11,2.59,7.19
		c0,2.25-0.38,4.06-1.13,5.5c-0.73,1.41-1.86,2.57-3.25,3.34c-1.43,0.79-3.21,1.2-5.33,1.2c-2.16,0-3.94-0.34-5.35-1.03
		c-1.45-0.73-2.65-1.86-3.44-3.25C103.35,39.82,102.9,37.96,102.9,35.71z M108.8,35.73c0,1.92,0.36,3.32,1.07,4.17
		c0.71,0.83,1.69,1.26,2.93,1.26c1.26,0,2.25-0.41,2.95-1.24c0.71-0.83,1.05-2.31,1.05-4.45c0-1.8-0.36-3.12-1.09-3.94
		c-0.73-0.83-1.71-1.24-2.95-1.24c-1.09-0.04-2.16,0.43-2.87,1.26C109.17,32.4,108.8,33.79,108.8,35.73L108.8,35.73z"/>
	<path class="st0" d="M122.11,26.15h5.9v14.42h9.22v4.71h-15.14V26.15H122.11z"/>
	<g>
		<defs>
			
				<ellipse id="SVGID_15_" transform="matrix(0.7986 -0.6018 0.6018 0.7986 12.1878 68.8217)" cx="108.93" cy="16.2" rx="13.47" ry="11.08"/>
		</defs>
		<clipPath id="SVGID_1_">
			<use xlink:href="#SVGID_15_"  style="overflow:visible;"/>
		</clipPath>
		<g class="st1">
			<g id="Layer_2_1_">
				<g>
					<defs>
						
							<rect id="SVGID_17_" x="89.77" y="-1.35" transform="matrix(0.7986 -0.6018 0.6018 0.7986 12.1375 68.8813)" width="38.46" height="35.31"/>
					</defs>
					<clipPath id="SVGID_2_">
						<use xlink:href="#SVGID_17_"  style="overflow:visible;"/>
					</clipPath>
					<g id="Layer_1-2" class="st2">
						
							<ellipse transform="matrix(0.7986 -0.6018 0.6018 0.7986 12.1878 68.8217)" class="st3" cx="108.93" cy="16.2" rx="13.47" ry="11.08"/>
						<path class="st0" d="M102.92,14.79l2.14-1.5l2.63,3.74c0.45,0.6,0.79,1.24,1.05,1.95c0.15,0.53,0.11,1.11-0.11,1.63
							c-0.28,0.64-0.73,1.18-1.33,1.56c-0.71,0.49-1.3,0.77-1.82,0.86c-0.49,0.09-1.01,0-1.48-0.21c-0.51-0.26-0.96-0.62-1.3-1.09
							l1.84-1.71c0.15,0.24,0.34,0.45,0.56,0.62c0.15,0.11,0.32,0.17,0.51,0.17c0.15,0,0.3-0.06,0.41-0.15
							c0.21-0.13,0.36-0.38,0.34-0.64c-0.06-0.36-0.21-0.73-0.45-1.01L102.92,14.79L102.92,14.79z M109.34,17.17l1.95-1.54
							c0.21,0.26,0.49,0.45,0.79,0.56c0.43,0.13,0.88,0.04,1.24-0.24c0.26-0.17,0.47-0.41,0.56-0.71c0.13-0.38-0.09-0.81-0.47-0.94
							c-0.06-0.02-0.13-0.04-0.19-0.04c-0.26-0.02-0.71,0.09-1.37,0.36c-1.09,0.45-1.95,0.62-2.59,0.56
							c-0.62-0.06-1.2-0.38-1.54-0.92c-0.26-0.36-0.38-0.79-0.41-1.22c0-0.49,0.13-0.98,0.41-1.39c0.41-0.58,0.9-1.07,1.5-1.45
							c0.9-0.62,1.69-0.92,2.37-0.92s1.33,0.32,1.92,0.98l-1.92,1.52c-0.38-0.49-1.11-0.6-1.6-0.21l-0.06,0.06
							c-0.21,0.13-0.36,0.32-0.45,0.56c-0.06,0.17-0.02,0.36,0.09,0.51c0.09,0.11,0.21,0.19,0.36,0.19c0.17,0.02,0.47-0.06,0.9-0.26
							c1.07-0.45,1.88-0.71,2.44-0.79c0.47-0.09,0.96-0.04,1.41,0.15c0.41,0.17,0.75,0.47,0.98,0.83c0.3,0.43,0.47,0.94,0.49,1.48
							c0.02,0.56-0.13,1.09-0.43,1.56c-0.38,0.58-0.88,1.07-1.45,1.45c-1.18,0.81-2.14,1.15-2.91,1.03
							C110.52,18.22,109.83,17.79,109.34,17.17L109.34,17.17z"/>
					</g>
				</g>
			</g>
		</g>
	</g>
</g>
</svg>
