<?xml version="1.0" encoding="utf-8"?>
<!-- Generator: Adobe Illustrator 23.0.3, SVG Export Plug-In . SVG Version: 6.00 Build 0)  -->
<svg version="1.1" id="Слой_1" xmlns="http://www.w3.org/2000/svg" xmlns:xlink="http://www.w3.org/1999/xlink" x="0px" y="0px"
	 viewBox="0 0 16 16" style="enable-background:new 0 0 16 16;" xml:space="preserve">
<style type="text/css">
	.st0{fill:#437F56;}
</style>
<g>
	<path class="st0" d="M14.29,4.3l-2.56-2.56c-0.98-0.98-2.3-1.53-3.69-1.53s-2.71,0.54-3.7,1.53L1.78,4.3
		C0.79,5.29,0.25,6.61,0.25,8c0,1.39,0.54,2.71,1.53,3.7l2.56,2.56c0.98,0.98,2.3,1.53,3.69,1.53c1.35,0,2.65-0.52,3.63-1.46
		l2.63-2.63c0.98-0.98,1.53-2.3,1.53-3.69C15.82,6.61,15.28,5.29,14.29,4.3z M12.5,9.91l-2.59,2.6c-0.48,0.47-1.14,0.76-1.88,0.76
		c-0.75,0-1.42-0.3-1.91-0.79l1.26-1.26c0.16,0.16,0.4,0.27,0.65,0.27c0.26,0,0.48-0.1,0.65-0.27l2.56-2.56
		c0.16-0.16,0.27-0.4,0.27-0.65c0-0.26-0.1-0.48-0.27-0.65c-0.16-0.16-0.4-0.27-0.65-0.27c-0.26,0-0.48,0.1-0.65,0.27L7.38,9.92
		c-0.49,0.49-1.17,0.79-1.91,0.79c-0.75,0-1.42-0.3-1.91-0.79C3.08,9.42,2.77,8.75,2.77,8.01c0-0.75,0.3-1.42,0.79-1.91l2.56-2.56
		C6.62,3.05,7.3,2.74,8.04,2.74c0.75,0,1.42,0.3,1.91,0.79L8.68,4.8c-0.16-0.16-0.4-0.27-0.65-0.27c-0.26,0-0.48,0.1-0.65,0.27
		L4.83,7.36c-0.16,0.16-0.27,0.4-0.27,0.65c0,0.26,0.1,0.48,0.27,0.65c0.16,0.16,0.4,0.27,0.65,0.27c0.26,0,0.48-0.1,0.65-0.27
		l2.56-2.56C9.17,5.6,9.85,5.3,10.59,5.3c0.74,0,1.42,0.3,1.91,0.79S13.29,7.26,13.29,8C13.29,8.75,12.99,9.42,12.5,9.91z"/>
</g>
</svg>
