<?xml version="1.0" encoding="utf-8"?>
<!-- Generator: Adobe Illustrator 23.0.3, SVG Export Plug-In . SVG Version: 6.00 Build 0)  -->
<svg version="1.1" id="Слой_1" xmlns="http://www.w3.org/2000/svg" xmlns:xlink="http://www.w3.org/1999/xlink" x="0px" y="0px"
	 viewBox="0 0 25 25" style="enable-background:new 0 0 25 25;" xml:space="preserve">
<style type="text/css">
	.st0{fill:#FFFFFF;}
</style>
<g>
	<g id="Layer_x0020_1_2_">
		<path class="st0" d="M12.5,0.25L12.5,0.25L12.5,0.25c3.38,0,6.45,1.37,8.66,3.59c2.22,2.22,3.59,5.28,3.59,8.66h0v0h0
			c0,3.38-1.37,6.45-3.59,8.66c-2.22,2.22-5.28,3.59-8.66,3.59v0h0v0c-3.38,0-6.45-1.37-8.66-3.59c-2.22-2.22-3.59-5.28-3.59-8.66h0
			v0h0c0-3.38,1.37-6.45,3.59-8.66C6.05,1.62,9.12,0.25,12.5,0.25L12.5,0.25L12.5,0.25z M12.5,1.71L12.5,1.71L12.5,1.71L12.5,1.71
			c-2.98,0-5.67,1.21-7.63,3.16C2.92,6.83,1.71,9.52,1.71,12.5h0v0h0c0,2.98,1.21,5.67,3.16,7.63c1.95,1.95,4.65,3.16,7.63,3.16v0h0
			v0c2.98,0,5.67-1.21,7.63-3.16c1.95-1.95,3.16-4.65,3.16-7.63h0v0h0c0-2.98-1.21-5.67-3.16-7.63C18.17,2.92,15.48,1.71,12.5,1.71z
			"/>
	</g>
	<path class="st0" d="M11.89,10.15c5.73-2.5,7.36-3.19,7.7-2.77c0.26,0.32,0.14,1.26-0.42,5.76c-0.22,1.75-0.22,1.75-0.53,3.83
		c-0.12,0.81-0.07,1.87-0.76,2.24c-0.18,0.1-0.42,0.18-0.82,0.14c-0.61-0.05-1.18-0.58-3.24-1.7c0,0-2.73-1.56-2.2-2.2
		c0.82-1,4.67-4.29,4.51-4.59c-0.15-0.3-5.43,3.24-6.64,3.64c-0.68,0.23-2.58-0.49-4.17-1.21C4.72,13.03,9.44,11.22,11.89,10.15z"/>
</g>
</svg>
